<svg id="calendar_3_1" data-name="calendar (3) 1" xmlns="http://www.w3.org/2000/svg" width="46.25" height="48" viewBox="0 0 46.25 48">
  <defs>
    <style>
      .cls-1 {
        fill: #5092cd;
      }

      .cls-1, .cls-10, .cls-2, .cls-3, .cls-4, .cls-5, .cls-6, .cls-7, .cls-8, .cls-9 {
        fill-rule: evenodd;
      }

      .cls-2 {
        fill: #67aae6;
      }

      .cls-3 {
        fill: #a3ccef;
      }

      .cls-4 {
        fill: #85bbeb;
      }

      .cls-5 {
        fill: #db2e26;
      }

      .cls-6 {
        fill: #eaf3f9;
      }

      .cls-7 {
        fill: #c5def3;
      }

      .cls-8 {
        fill: #fb4a34;
      }

      .cls-9 {
        fill: #ed3b2e;
      }

      .cls-10 {
        fill: #fa6e62;
      }
    </style>
  </defs>
  <path id="Vector" class="cls-1" d="M94,836a23.052,23.052,0,0,0,16.227-6.651H77.774A23.049,23.049,0,0,0,94,836Z" transform="translate(-70.875 -788)"/>
  <path id="Vector-2" data-name="Vector" class="cls-2" d="M93.015,829.349H77.774a23.047,23.047,0,0,0,15.047,6.621C88.536,835.755,88.725,829.349,93.015,829.349Z" transform="translate(-70.875 -788)"/>
  <path id="Vector-3" data-name="Vector" class="cls-2" d="M77.774,829.349h32.453A23.124,23.124,0,1,0,77.774,829.349Z" transform="translate(-70.875 -788)"/>
  <path id="Vector-4" data-name="Vector" class="cls-3" d="M111.323,801.171h-2.292c-0.71,9.161-1.784,22.408-2.155,27.494a2.214,2.214,0,0,1-2.084,2.049v0h3.92a23.193,23.193,0,0,0,6.275-8.125C113.926,816.343,112.426,807.712,111.323,801.171Z" transform="translate(-70.875 -788)"/>
  <path id="Vector-5" data-name="Vector" class="cls-4" d="M109.059,830.422q0.344-.3.676-0.6a2.2,2.2,0,0,0,.429-1.154c0.318-4.381,1.159-14.815,1.841-23.479-0.238-1.395-.467-2.745-0.682-4.015h-2.292c-0.71,9.161-1.784,22.408-2.155,27.494a2.213,2.213,0,0,1-2.084,2.049v0h3.287v0A2.2,2.2,0,0,0,109.059,830.422Z" transform="translate(-70.875 -788)"/>
  <path id="Vector-6" data-name="Vector" class="cls-5" d="M109.023,801.265h2.316c-0.462-2.74-.857-5.12-1.122-6.812a3.112,3.112,0,0,0-1.829-2.371,2.215,2.215,0,0,1,1.168,2.109C109.435,795.9,109.247,798.384,109.023,801.265Z" transform="translate(-70.875 -788)"/>
  <path id="Vector-7" data-name="Vector" class="cls-6" d="M74.1,801.077c-0.693,8.974-1.734,21.949-2.127,27.264a2.213,2.213,0,0,0,2.208,2.376h30.585a2.213,2.213,0,0,0,2.208-2.052c0.371-5.1,1.452-18.424,2.162-27.588H74.1Z" transform="translate(-70.875 -788)"/>
  <path id="Vector-8" data-name="Vector" class="cls-7" d="M75.133,828.341c0.393-5.315,1.434-18.29,2.128-27.264H74.1c-0.693,8.974-1.734,21.949-2.127,27.264a2.213,2.213,0,0,0,2.208,2.376h3.163A2.213,2.213,0,0,1,75.133,828.341Z" transform="translate(-70.875 -788)"/>
  <path id="Vector-9" data-name="Vector" class="cls-8" d="M107.441,791.822h-30.6a2.213,2.213,0,0,0-2.208,2.059c-0.12,1.705-.318,4.319-0.555,7.384h35.035c0.224-2.881.412-5.365,0.533-7.074A2.215,2.215,0,0,0,107.441,791.822Z" transform="translate(-70.875 -788)"/>
  <path id="Vector-10" data-name="Vector" class="cls-9" d="M80.01,791.822H76.845a2.213,2.213,0,0,0-2.208,2.059c-0.12,1.705-.318,4.319-0.555,7.384h3.165c0.236-3.065.434-5.679,0.555-7.384A2.214,2.214,0,0,1,80.01,791.822Z" transform="translate(-70.875 -788)"/>
  <path id="Vector-11" data-name="Vector" class="cls-5" d="M84.091,796.633A2.086,2.086,0,1,1,82,794.547,2.087,2.087,0,0,1,84.091,796.633Z" transform="translate(-70.875 -788)"/>
  <path id="Vector-12" data-name="Vector" class="cls-7" d="M83.888,797.53a2.087,2.087,0,0,0-.5-2.454,2.538,2.538,0,1,1,.884-3.254h2.548A4.955,4.955,0,1,0,83.888,797.53Z" transform="translate(-70.875 -788)"/>
  <path id="Vector-13" data-name="Vector" class="cls-5" d="M104.529,796.633a2.087,2.087,0,1,1-2.087-2.086A2.087,2.087,0,0,1,104.529,796.633Z" transform="translate(-70.875 -788)"/>
  <path id="Vector-14" data-name="Vector" class="cls-7" d="M104.326,797.53a2.087,2.087,0,0,0-.5-2.454,2.514,2.514,0,0,1-1.387.414,2.538,2.538,0,1,1,2.273-3.668h2.547A4.954,4.954,0,1,0,104.326,797.53Z" transform="translate(-70.875 -788)"/>
  <path id="Vector-15" data-name="Vector" class="cls-10" d="M95.924,797.248H87.361a0.7,0.7,0,1,1,0-1.409h8.563A0.7,0.7,0,0,1,95.924,797.248Z" transform="translate(-70.875 -788)"/>
  <path id="Vector-16" data-name="Vector" class="cls-7" d="M72,827.981q-0.014.185-.027,0.36a2.213,2.213,0,0,0,2.208,2.376h30.585a2.213,2.213,0,0,0,2.208-2.052c0.015-.214.033-0.442,0.051-0.684H72Z" transform="translate(-70.875 -788)"/>
  <path id="Vector-17" data-name="Vector" class="cls-3" d="M75.159,827.981H72c0,0.047-.007.093-0.01,0.139s-0.007.1-.01,0.143c0,0.026,0,.052-0.006.078a2.213,2.213,0,0,0,2.208,2.376H77.34a2.213,2.213,0,0,1-2.207-2.376C75.141,828.225,75.15,828.1,75.159,827.981Z" transform="translate(-70.875 -788)"/>
  <g id="Group">
    <path id="Vector-18" data-name="Vector" class="cls-2" d="M80.67,810.26H78.339a0.474,0.474,0,0,0-.472.429l-0.218,2.322a0.473,0.473,0,0,0,.471.517h2.332a0.474,0.474,0,0,0,.472-0.429l0.218-2.321A0.474,0.474,0,0,0,80.67,810.26Z" transform="translate(-70.875 -788)"/>
    <path id="Vector-19" data-name="Vector" class="cls-2" d="M80.165,815.647H77.832a0.474,0.474,0,0,0-.472.429L77.143,818.4a0.474,0.474,0,0,0,.471.518h2.332a0.474,0.474,0,0,0,.472-0.429l0.218-2.321A0.473,0.473,0,0,0,80.165,815.647Z" transform="translate(-70.875 -788)"/>
    <path id="Vector-20" data-name="Vector" class="cls-2" d="M86.364,810.26H84.032a0.474,0.474,0,0,0-.472.429l-0.218,2.322a0.473,0.473,0,0,0,.471.517h2.332a0.474,0.474,0,0,0,.472-0.429l0.218-2.321A0.473,0.473,0,0,0,86.364,810.26Z" transform="translate(-70.875 -788)"/>
    <path id="Vector-21" data-name="Vector" class="cls-2" d="M85.857,815.647H83.525a0.474,0.474,0,0,0-.472.429L82.835,818.4a0.473,0.473,0,0,0,.471.518h2.332a0.474,0.474,0,0,0,.472-0.429l0.218-2.321A0.473,0.473,0,0,0,85.857,815.647Z" transform="translate(-70.875 -788)"/>
    <path id="Vector-22" data-name="Vector" class="cls-2" d="M92.562,804.873H90.23a0.473,0.473,0,0,0-.471.429l-0.219,2.322a0.474,0.474,0,0,0,.472.518h2.332a0.473,0.473,0,0,0,.471-0.43l0.219-2.321A0.474,0.474,0,0,0,92.562,804.873Z" transform="translate(-70.875 -788)"/>
    <path id="Vector-23" data-name="Vector" class="cls-2" d="M92.056,810.26H89.724a0.474,0.474,0,0,0-.472.429l-0.218,2.322a0.473,0.473,0,0,0,.471.517h2.332a0.474,0.474,0,0,0,.472-0.429l0.218-2.321A0.474,0.474,0,0,0,92.056,810.26Z" transform="translate(-70.875 -788)"/>
    <path id="Vector-24" data-name="Vector" class="cls-2" d="M91.549,815.647H89.217a0.474,0.474,0,0,0-.472.429L88.528,818.4a0.473,0.473,0,0,0,.471.518h2.332a0.474,0.474,0,0,0,.472-0.429l0.218-2.321A0.473,0.473,0,0,0,91.549,815.647Z" transform="translate(-70.875 -788)"/>
    <path id="Vector-25" data-name="Vector" class="cls-2" d="M98.254,804.873H95.922a0.473,0.473,0,0,0-.471.429l-0.219,2.322a0.474,0.474,0,0,0,.472.518h2.332a0.473,0.473,0,0,0,.471-0.43l0.219-2.321A0.474,0.474,0,0,0,98.254,804.873Z" transform="translate(-70.875 -788)"/>
    <path id="Vector-26" data-name="Vector" class="cls-2" d="M97.748,810.26H95.416a0.474,0.474,0,0,0-.472.429l-0.218,2.322a0.473,0.473,0,0,0,.472.517H97.53A0.472,0.472,0,0,0,98,813.1l0.219-2.321A0.474,0.474,0,0,0,97.748,810.26Z" transform="translate(-70.875 -788)"/>
    <path id="Vector-27" data-name="Vector" class="cls-2" d="M97.242,815.647H94.91a0.474,0.474,0,0,0-.472.429L94.22,818.4a0.473,0.473,0,0,0,.471.518h2.332a0.474,0.474,0,0,0,.472-0.429l0.218-2.321A0.473,0.473,0,0,0,97.242,815.647Z" transform="translate(-70.875 -788)"/>
    <path id="Vector-28" data-name="Vector" class="cls-2" d="M79.658,821.033H77.326a0.473,0.473,0,0,0-.471.429l-0.219,2.322a0.474,0.474,0,0,0,.472.518h2.331a0.474,0.474,0,0,0,.472-0.429l0.219-2.322A0.474,0.474,0,0,0,79.658,821.033Z" transform="translate(-70.875 -788)"/>
    <path id="Vector-29" data-name="Vector" class="cls-2" d="M85.35,821.033H83.018a0.474,0.474,0,0,0-.472.429l-0.218,2.322a0.474,0.474,0,0,0,.472.518h2.331a0.474,0.474,0,0,0,.472-0.429l0.219-2.322A0.474,0.474,0,0,0,85.35,821.033Z" transform="translate(-70.875 -788)"/>
  </g>
  <path id="Vector-30" data-name="Vector" class="cls-3" d="M91.043,821.033H88.711a0.474,0.474,0,0,0-.472.429l-0.218,2.322a0.474,0.474,0,0,0,.471.518h2.332a0.474,0.474,0,0,0,.472-0.429l0.218-2.322A0.473,0.473,0,0,0,91.043,821.033Z" transform="translate(-70.875 -788)"/>
  <g id="Group-2" data-name="Group">
    <path id="Vector-31" data-name="Vector" class="cls-2" d="M103.947,804.873h-2.332a0.473,0.473,0,0,0-.471.429l-0.219,2.322a0.474,0.474,0,0,0,.472.518h2.331a0.474,0.474,0,0,0,.472-0.43l0.218-2.321A0.473,0.473,0,0,0,103.947,804.873Z" transform="translate(-70.875 -788)"/>
    <path id="Vector-32" data-name="Vector" class="cls-2" d="M103.44,810.26h-2.331a0.474,0.474,0,0,0-.472.429l-0.219,2.322a0.474,0.474,0,0,0,.472.517h2.332a0.472,0.472,0,0,0,.471-0.429l0.219-2.321A0.474,0.474,0,0,0,103.44,810.26Z" transform="translate(-70.875 -788)"/>
  </g>
  <g id="Group-3" data-name="Group">
    <path id="Vector-33" data-name="Vector" class="cls-3" d="M81.177,804.873H78.846a0.474,0.474,0,0,0-.472.429l-0.219,2.322a0.474,0.474,0,0,0,.472.518h2.332a0.474,0.474,0,0,0,.472-0.43l0.218-2.321A0.474,0.474,0,0,0,81.177,804.873Z" transform="translate(-70.875 -788)"/>
    <path id="Vector-34" data-name="Vector" class="cls-3" d="M86.87,804.873H84.538a0.473,0.473,0,0,0-.471.429l-0.219,2.322a0.474,0.474,0,0,0,.472.518h2.332a0.473,0.473,0,0,0,.471-0.43l0.219-2.321A0.474,0.474,0,0,0,86.87,804.873Z" transform="translate(-70.875 -788)"/>
  </g>
  <path id="Vector-35" data-name="Vector" class="cls-2" d="M102.933,815.647H100.6a0.474,0.474,0,0,0-.472.429L99.912,818.4a0.473,0.473,0,0,0,.471.518h2.332a0.474,0.474,0,0,0,.472-0.429l0.218-2.322A0.474,0.474,0,0,0,102.933,815.647Z" transform="translate(-70.875 -788)"/>
  <g id="Group-4" data-name="Group">
    <path id="Vector-36" data-name="Vector" class="cls-3" d="M96.735,821.033H94.4a0.474,0.474,0,0,0-.472.43l-0.218,2.321a0.473,0.473,0,0,0,.471.518h2.332a0.474,0.474,0,0,0,.472-0.429l0.218-2.322A0.473,0.473,0,0,0,96.735,821.033Z" transform="translate(-70.875 -788)"/>
    <path id="Vector-37" data-name="Vector" class="cls-3" d="M102.427,821.033H100.1a0.474,0.474,0,0,0-.471.43l-0.218,2.321a0.473,0.473,0,0,0,.471.518h2.332a0.473,0.473,0,0,0,.471-0.429l0.218-2.322A0.473,0.473,0,0,0,102.427,821.033Z" transform="translate(-70.875 -788)"/>
    <path id="Vector-38" data-name="Vector" class="cls-3" d="M80.966,796.688a4.949,4.949,0,0,1-.608-8.4,4.951,4.951,0,1,0,3.531,9.247,2.135,2.135,0,0,0,.127-0.343A4.922,4.922,0,0,1,80.966,796.688Z" transform="translate(-70.875 -788)"/>
    <path id="Vector-39" data-name="Vector" class="cls-3" d="M101.4,796.688a4.95,4.95,0,0,1-.607-8.4,4.951,4.951,0,1,0,3.53,9.247,2.01,2.01,0,0,0,.127-0.343A4.926,4.926,0,0,1,101.4,796.688Z" transform="translate(-70.875 -788)"/>
  </g>
</svg>
