<svg width="29" height="35" viewBox="0 0 29 35" fill="none" xmlns="http://www.w3.org/2000/svg">
<path d="M7.89323 30.7277L2.06802 28.0335C0.830163 27.451 0.320457 25.9947 0.902978 24.7569C1.55831 23.519 3.01462 23.0821 4.17966 23.7374C6.94663 25.2666 9.34953 26.65 12.1165 28.1792C8.18449 30.5821 8.18449 30.5092 7.89323 30.7277Z" fill="white"/>
<path d="M26.1697 24.8292C26.825 26.067 26.2425 27.5233 25.0046 28.1058C19.3979 30.6544 11.8979 34.1495 11.9707 34.1495C11.6066 34.2223 9.20374 36.1155 8.18433 34.0039C7.45618 32.5476 8.69404 31.8194 9.27656 31.4553C20.4901 25.1932 22.9658 23.8097 22.893 23.8097C24.058 23.1544 25.5872 23.5913 26.1697 24.8292Z" fill="white"/>
<path d="M9.34947 4.87861C9.34947 2.18445 11.5339 0 14.2281 0C16.9222 0 19.1067 2.18445 19.1067 4.87861C19.1067 7.57277 16.9222 9.75723 14.2281 9.75723C11.5339 9.75723 9.34947 7.57277 9.34947 4.87861Z" fill="white"/>
<path d="M28.282 22.208C27.918 22.8633 27.0442 23.0817 26.4616 22.7177L24.6413 21.6982C21.2918 19.8779 20.7821 17.1837 19.6898 15.3633C19.4714 18.2759 19.5442 20.9701 19.8355 24.0283L14.2287 27.1594C13.7918 27.1594 13.3549 27.1594 12.918 27.0866L8.54913 24.7565C8.9132 21.4798 8.98602 18.5672 8.76757 15.4361C7.60253 17.475 7.16564 20.5332 1.99577 22.7905C1.41324 23.0817 0.539463 22.9361 0.175388 22.2808C-0.188688 21.6254 0.0297575 20.8245 0.685094 20.4604C8.4035 15.0721 5.92778 11.2129 9.27728 11.2129C15.7578 11.5041 20.1267 10.5575 20.7821 11.941C23.4762 17.1837 23.6947 18.3488 25.8063 19.441L27.6267 20.4604C28.3548 20.8245 28.5733 21.6254 28.282 22.208Z" fill="white"/>
<path d="M18.9622 32.4024C19.1806 32.9121 19.2535 33.4946 18.9622 34.0043C18.5253 34.8781 17.4331 35.1694 16.6321 34.8053L15.1758 34.15L18.9622 32.4024Z" fill="white"/>
</svg>
