<svg width="26" height="23" viewBox="0 0 26 23" fill="none" xmlns="http://www.w3.org/2000/svg">
<path d="M1.75 0.5H24.25C24.5815 0.5 24.8995 0.631696 25.1339 0.866116C25.3683 1.10054 25.5 1.41848 25.5 1.75V21.75C25.5 22.0815 25.3683 22.3995 25.1339 22.6339C24.8995 22.8683 24.5815 23 24.25 23H1.75C1.41848 23 1.10054 22.8683 0.866116 22.6339C0.631696 22.3995 0.5 22.0815 0.5 21.75V1.75C0.5 1.41848 0.631696 1.10054 0.866116 0.866116C1.10054 0.631696 1.41848 0.5 1.75 0.5ZM3 3V20.5H23V3H3ZM6.75 13H9.25V18H6.75V13ZM11.75 8.5H14.25V18H11.75V8.5ZM16.75 5.5H19.25V18H16.75V5.5Z" fill="#888888"/>
</svg>
