<svg xmlns="http://www.w3.org/2000/svg" width="30.969" height="30" viewBox="0 0 30.969 30">
  <defs>
    <style>
      .cls-1 {
        fill: #fff;
        fill-rule: evenodd;
      }
    </style>
  </defs>
  <path id="Vector" class="cls-1" d="M71.523,56a3.5,3.5,0,1,0-3.649-3.5A3.576,3.576,0,0,0,71.523,56Zm1.192,4.571q1.858,3.06,3.545,6.215a30.835,30.835,0,0,0-4.654,3.037c-1.007.784-2.886,4.788-3.852,6.7-1.038,2.056,2.3,3.547,3.335,1.5,0.852-1.687,2.287-5.046,3.122-5.705A23.875,23.875,0,0,1,79.88,69.1a2.042,2.042,0,0,0,.285-0.121,9.513,9.513,0,0,0,11.854,2.191c2.254-1.263.216-4.377-2.046-3.11-3.133,1.757-6.395-.489-7.871-3.3s-2.523-4.792-3.72-6.784a5.275,5.275,0,0,1,6.156,2.2c1.366,1.836,4.564.075,3.181-1.782-3.253-4.368-8.1-5.452-12.961-2.688-0.2.115-1.113,0.6-1.319,0.713-3.019,1.718-5.824,1.392-7.92-1.421-1.368-1.836-4.565-.075-3.181,1.782C65.013,60.361,68.766,61.727,72.715,60.567Z" transform="translate(-62.031 -49)"/>
</svg>
